<?xml version="1.0" encoding="UTF-8" standalone="no"?>
<!-- Uploaded to: SVG Repo, www.svgrepo.com, Transformed by: SVG Repo Mixer Tools -->

<svg
   width="128"
   height="128"
   viewBox="0 0 56 56"
   fill="none"
   version="1.1"
   id="svg2"
   sodipodi:docname="gear.svg"
   xmlns:inkscape="http://www.inkscape.org/namespaces/inkscape"
   xmlns:sodipodi="http://sodipodi.sourceforge.net/DTD/sodipodi-0.dtd"
   xmlns="http://www.w3.org/2000/svg"
   xmlns:svg="http://www.w3.org/2000/svg">
  <sodipodi:namedview
     id="namedview1"
     pagecolor="#000000"
     bordercolor="#000000"
     borderopacity="0.25"
     inkscape:showpageshadow="2"
     inkscape:pageopacity="0.0"
     inkscape:pagecheckerboard="0"
     inkscape:deskcolor="#d1d1d1" />
  <defs
     id="defs2" />
  <g
     id="SVGRepo_iconCarrier"
     transform="matrix(-1.9736565,0,0,-1.9736565,55.631188,55.631188)"
     style="fill:#cccccc;fill-opacity:1">
    <path
       clip-rule="evenodd"
       d="m 14,20 c 3.3137,0 6,-2.6863 6,-6 0,-3.3137 -2.6863,-6 -6,-6 -3.3137,0 -6,2.6863 -6,6 0,3.3137 2.6863,6 6,6 z m 4,-6 c 0,2.2091 -1.7909,4 -4,4 -2.2091,0 -4,-1.7909 -4,-4 0,-2.2091 1.7909,-4 4,-4 2.2091,0 4,1.7909 4,4 z"
       fill="#ffffff"
       fill-rule="evenodd"
       id="path1"
       style="fill:#cccccc;fill-opacity:1" />
    <path
       clip-rule="evenodd"
       d="m 0,12.9996 v 2 c 0,1.5482 1.17261,2.8224 2.67809,2.983 0.12779,0.3633 0.27253,0.7185 0.43324,1.0647 -0.98649,1.1787 -0.92597,2.9367 0.18158,4.0443 l 1.41421,1.4142 c 1.08234,1.0823 2.78593,1.1648 3.96291,0.2473 0.43437,0.2157 0.8838,0.4059 1.34627,0.5687 C 10.1769,26.8273 11.4511,28 12.9993,28 h 2 c 1.5478,0 2.8218,-1.1721 2.9828,-2.6772 0.4203,-0.1478 0.8298,-0.3182 1.227,-0.5099 1.1732,0.8535 2.8253,0.7511 3.8835,-0.3071 l 1.4142,-1.4142 c 1.0582,-1.0582 1.1606,-2.7103 0.3072,-3.8835 0.1914,-0.3968 0.3617,-0.8058 0.5094,-1.2257 C 26.8282,17.8211 28,16.5472 28,14.9996 v -2 C 28,11.452 26.8282,10.1782 25.3234,10.0169 25.1605,9.55375 24.9701,9.10374 24.7541,8.66883 25.6708,7.49189 25.5882,5.78888 24.5061,4.70681 L 23.0919,3.29259 C 21.9846,2.18531 20.2271,2.12455 19.0485,3.1103 18.7017,2.94935 18.3459,2.80441 17.982,2.67647 17.8207,1.17177 16.5468,0 14.9993,0 h -2 C 11.4514,0 10.1773,1.17231 10.0164,2.6775 9.60779,2.8213 9.20936,2.98653 8.82251,3.17181 7.64444,2.12251 5.83764,2.16276 4.70782,3.29259 L 3.2936,4.7068 C 2.16377,5.83664 2.12352,7.64345 3.17285,8.82152 2.98737,9.20877 2.82199,9.60763 2.67809,10.0167 1.17261,10.1773 0,11.4515 0,12.9996 Z M 15.9993,3 c 0,-0.55228 -0.4477,-1 -1,-1 h -2 c -0.5523,0 -1,0.44772 -1,1 v 0.38269 c 0,0.47554 -0.3367,0.88007 -0.7934,1.01273 C 10.4966,4.60148 9.81974,4.88401 9.18495,5.23348 8.76836,5.46282 8.24425,5.41481 7.90799,5.07855 L 7.53624,4.70681 C 7.14572,4.31628 6.51256,4.31628 6.12203,4.7068 L 4.70782,6.12102 c -0.39053,0.39052 -0.39053,1.02369 0,1.41421 L 5.07958,7.90699 C 5.41584,8.24325 5.46385,8.76736 5.23451,9.18395 4.88485,9.8191 4.6022,10.4963 4.39611,11.2061 4.2635,11.6629 3.85894,11.9996 3.38334,11.9996 H 3 c -0.55228,0 -1,0.4478 -1,1 v 2 c 0,0.5523 0.44772,1 1,1 h 0.38334 c 0.4756,0 0.88015,0.3368 1.01277,0.7935 0.19343,0.6663 0.45431,1.3038 0.77474,1.9048 0.22117,0.4148 0.1701,0.9314 -0.1623,1.2638 l -0.30143,0.3015 c -0.39052,0.3905 -0.39052,1.0236 0,1.4142 l 1.41422,1.4142 c 0.39052,0.3905 1.02369,0.3905 1.41421,0 l 0.24332,-0.2433 c 0.34012,-0.3402 0.87168,-0.385 1.28992,-0.1475 0.66816,0.3796 1.38431,0.6844 2.13711,0.9031 0.4567,0.1326 0.7934,0.5372 0.7934,1.0127 V 25 c 0,0.5523 0.4477,1 1,1 h 2 c 0.5523,0 1,-0.4477 1,-1 v -0.3826 c 0,-0.4756 0.3368,-0.8802 0.7936,-1.0128 0.7103,-0.2061 1.388,-0.4889 2.0235,-0.8388 0.4166,-0.2293 0.9407,-0.1813 1.277,0.155 l 0.1708,0.1708 c 0.3905,0.3905 1.0237,0.3905 1.4142,0 l 1.4142,-1.4142 c 0.3905,-0.3906 0.3905,-1.0237 0,-1.4142 l -0.1708,-0.1708 c -0.3363,-0.3363 -0.3843,-0.8604 -0.1549,-1.277 0.3497,-0.6352 0.6323,-1.3124 0.8384,-2.0223 0.1326,-0.4567 0.5372,-0.7935 1.0128,-0.7935 H 25 c 0.5523,0 1,-0.4477 1,-1 v -2 c 0,-0.5522 -0.4477,-1 -1,-1 h -0.3819 c -0.4756,0 -0.8802,-0.3367 -1.0128,-0.7935 C 23.3866,10.4529 23.0817,9.73627 22.7019,9.06773 22.4643,8.64949 22.5092,8.11793 22.8493,7.77781 l 0.2426,-0.24258 c 0.3905,-0.39052 0.3905,-1.02369 0,-1.41421 L 21.6777,4.7068 c -0.3905,-0.39052 -1.0237,-0.39052 -1.4142,0 L 19.9628,5.00748 C 19.6304,5.33988 19.1137,5.39096 18.6989,5.16979 18.0976,4.84915 17.4596,4.58815 16.7929,4.39467 16.3361,4.2621 15.9993,3.85752 15.9993,3.38187 Z"
       fill="#ffffff"
       fill-rule="evenodd"
       id="path2"
       style="fill:#cccccc;fill-opacity:1" />
  </g>
</svg>
