<?xml version="1.0" encoding="UTF-8" standalone="no"?>
<!-- Uploaded to: SVG Repo, www.svgrepo.com, Transformed by: SVG Repo Mixer Tools -->

<svg
   fill="#000000"
   height="128"
   width="128"
   version="1.1"
   id="Layer_1"
   viewBox="0 0 512 512"
   xml:space="preserve"
   sodipodi:docname="sound-on.svg"
   inkscape:export-filename="sound-on.svg"
   inkscape:export-xdpi="96"
   inkscape:export-ydpi="96"
   xmlns:inkscape="http://www.inkscape.org/namespaces/inkscape"
   xmlns:sodipodi="http://sodipodi.sourceforge.net/DTD/sodipodi-0.dtd"
   xmlns="http://www.w3.org/2000/svg"
   xmlns:svg="http://www.w3.org/2000/svg"><defs
   id="defs6" /><sodipodi:namedview
   id="namedview6"
   pagecolor="#000000"
   bordercolor="#000000"
   borderopacity="0.25"
   inkscape:showpageshadow="2"
   inkscape:pageopacity="0.0"
   inkscape:pagecheckerboard="0"
   inkscape:deskcolor="#d1d1d1" />





<g
   id="SVGRepo_iconCarrier"
   style="fill:#ffffff;fill-opacity:1"> <g
   id="g6"
   style="fill:#ffffff;fill-opacity:1"> <g
   id="g5"
   style="fill:#ffffff;fill-opacity:1"> <g
   id="g4"
   style="fill:#ffffff;fill-opacity:1"> <path
   d="M 256,0 C 114.618,0 0,114.618 0,256 0,397.382 114.618,512 256,512 397.382,512 512,397.382 512,256 512,114.618 397.382,0 256,0 Z m 0,469.333 C 138.182,469.333 42.667,373.818 42.667,256 42.667,138.182 138.182,42.667 256,42.667 c 117.818,0 213.333,95.515 213.333,213.333 0,117.818 -95.515,213.333 -213.333,213.333 z"
   id="path1"
   style="fill:#ffffff;fill-opacity:1" />    </g> </g> </g> <g
   style="fill:none"
   id="g1"
   transform="matrix(14.554485,0,0,14.554485,67.368017,76.952908)"
   inkscape:export-filename="music-on.svg"
   inkscape:export-xdpi="96"
   inkscape:export-ydpi="96"><g
     id="SVGRepo_bgCarrier"
     stroke-width="0" /><g
     id="SVGRepo_tracerCarrier"
     stroke-linecap="round"
     stroke-linejoin="round" /><g
     id="SVGRepo_iconCarrier-2"><path
       d="m 9,19 c 0,1.1046 -1.34315,2 -3,2 -1.65685,0 -3,-0.8954 -3,-2 0,-1.1046 1.34315,-2 3,-2 1.65685,0 3,0.8954 3,2 z m 0,0 V 5 L 21,3 v 14 m 0,0 c 0,1.1046 -1.3431,2 -3,2 -1.6569,0 -3,-0.8954 -3,-2 0,-1.1046 1.3431,-2 3,-2 1.6569,0 3,0.8954 3,2 z M 9,9 21,7"
       stroke="#ffffff"
       stroke-width="2"
       stroke-linecap="round"
       stroke-linejoin="round"
       id="path1-8" /></g></g></g>

</svg>
