<?xml version="1.0" encoding="UTF-8" standalone="no"?>
<!-- Uploaded to: SVG Repo, www.svgrepo.com, Transformed by: SVG Repo Mixer Tools -->

<svg
   fill="#000000"
   height="128"
   width="128"
   version="1.1"
   id="Layer_1"
   viewBox="0 0 512 512"
   xml:space="preserve"
   sodipodi:docname="mute-svgrepo-com.svg"
   xmlns:inkscape="http://www.inkscape.org/namespaces/inkscape"
   xmlns:sodipodi="http://sodipodi.sourceforge.net/DTD/sodipodi-0.dtd"
   xmlns="http://www.w3.org/2000/svg"
   xmlns:svg="http://www.w3.org/2000/svg"><defs
   id="defs2" /><sodipodi:namedview
   id="namedview2"
   pagecolor="#000000"
   bordercolor="#000000"
   borderopacity="0.25"
   inkscape:showpageshadow="2"
   inkscape:pageopacity="0.0"
   inkscape:pagecheckerboard="0"
   inkscape:deskcolor="#d1d1d1" />





<g
   id="SVGRepo_iconCarrier"
   style="fill:#ffffff"> <g
   id="g2"
   style="fill:#ffffff"> <g
   id="g1"
   style="fill:#ffffff"> <path
   d="M 256,0 C 114.618,0 0,114.618 0,256 0,397.382 114.618,512 256,512 397.382,512 512,397.382 512,256 512,114.618 397.382,0 256,0 Z m 0,42.667 c 51.226,0 98.23,18.063 135.006,48.158 l -29.681,29.681 C 356.9,108.598 342.266,102.555 330.348,109.708 l -99.072,59.456 c -1.636,0.976 -3.538,1.503 -5.449,1.503 h -76.501 c -23.558,0 -42.667,19.109 -42.667,42.667 v 85.333 c 0,20.802 14.903,38.126 34.609,41.896 L 90.825,391.006 C 60.73,354.23 42.667,307.226 42.667,256 42.667,138.182 138.182,42.667 256,42.667 Z m -72.837,256 h -33.839 v -85.333 h 76.501 c 9.627,0 19.079,-2.618 27.356,-7.556 l 57.195,-34.325 z M 319.991,222.178 V 346.317 L 253.23,306.252 c -3.799,-2.266 -7.834,-4.038 -12.012,-5.3 z M 256,469.333 c -51.226,0 -98.23,-18.063 -135.006,-48.158 l 79.842,-79.842 h 24.99 c 1.911,0 3.813,0.527 5.497,1.532 l 99.024,59.427 c 14.219,8.533 32.311,-1.709 32.311,-18.292 V 179.512 l 58.517,-58.517 c 30.095,36.776 48.158,83.78 48.158,135.006 0,117.817 -95.515,213.332 -213.333,213.332 z"
   id="path1"
   style="fill:#ffffff" /> </g> </g> </g>

</svg>
